<svg xmlns="http://www.w3.org/2000/svg" width="100" height="100" viewBox="0 0 100 100" fill="none"><circle cx="50" cy="50" r="50" fill="#AD8941" fill-opacity="0.1"></circle><circle cx="49.5" cy="49.5" r="39.5" fill="#AD8941"></circle><path d="M36.4659 49.46C36.4659 46.18 39.2259 43.56 42.5259 43.56C45.8459 43.56 48.6459 46.18 48.6459 49.46C48.6459 52.74 45.8459 55.34 42.5259 55.34C39.2259 55.34 36.4659 52.74 36.4659 49.46ZM38.1859 49.46C38.1859 51.86 40.1459 53.82 42.5259 53.82C44.9259 53.82 46.9259 51.86 46.9259 49.46C46.9259 47.06 44.9259 45.08 42.5259 45.08C40.1459 45.08 38.1859 47.06 38.1859 49.46ZM56.278 49.82V48.46H58.098C58.898 48.46 59.878 47.9 59.878 46.9C59.878 45.58 58.358 45.08 57.138 45.08C55.538 45.08 54.058 45.98 53.038 46.92L51.978 45.86C53.218 44.72 54.998 43.58 57.178 43.58C59.058 43.58 61.618 44.4 61.618 46.62C61.618 47.82 60.758 48.64 60.138 48.88C61.018 49.08 62.498 49.76 62.498 51.56C62.498 53.98 59.958 55.34 56.758 55.34C54.438 55.34 52.538 54.62 50.958 53.08L52.018 51.88C53.138 52.98 54.598 53.82 56.758 53.82C58.998 53.82 60.798 52.96 60.798 51.46C60.798 50.12 59.178 49.82 58.338 49.82H56.278Z" fill="white"></path></svg>