<svg xmlns="http://www.w3.org/2000/svg" width="100" height="100" viewBox="0 0 100 100" fill="none"><circle cx="50" cy="50" r="50" fill="#AD8941" fill-opacity="0.1"></circle><circle cx="49.5" cy="49.5" r="39.5" fill="#AD8941"></circle><path d="M37.2471 49.46C37.2471 46.18 40.0071 43.56 43.3071 43.56C46.6271 43.56 49.4271 46.18 49.4271 49.46C49.4271 52.74 46.6271 55.34 43.3071 55.34C40.0071 55.34 37.2471 52.74 37.2471 49.46ZM38.9671 49.46C38.9671 51.86 40.9271 53.82 43.3071 53.82C45.7071 53.82 47.7071 51.86 47.7071 49.46C47.7071 47.06 45.7071 45.08 43.3071 45.08C40.9271 45.08 38.9671 47.06 38.9671 49.46ZM53.3793 46.72L52.3793 45.52C53.6393 44.52 54.9593 43.58 57.2193 43.58C59.4393 43.58 61.6793 44.52 61.6793 46.66C61.6793 49.24 58.7393 49.86 57.0993 50.36C55.3993 50.88 53.9393 51.62 53.9393 53.44V53.64H61.4793V55H52.2193V53.6C52.2193 50.8 54.5993 49.5 57.0393 48.84C57.8193 48.62 59.9593 48.14 59.9593 46.7C59.9593 45.56 58.5793 45.08 57.2593 45.08C55.4993 45.08 54.4193 45.84 53.3793 46.72Z" fill="white"></path></svg>