<svg xmlns="http://www.w3.org/2000/svg" width="100" height="100" viewBox="0 0 100 100" fill="none"><circle cx="50" cy="50" r="50" fill="#AD8941" fill-opacity="0.1"></circle><circle cx="49.5" cy="49.5" r="39.5" fill="#AD8941"></circle><path d="M37.21 49.46C37.21 46.18 39.97 43.56 43.27 43.56C46.59 43.56 49.39 46.18 49.39 49.46C49.39 52.74 46.59 55.34 43.27 55.34C39.97 55.34 37.21 52.74 37.21 49.46ZM38.93 49.46C38.93 51.86 40.89 53.82 43.27 53.82C45.67 53.82 47.67 51.86 47.67 49.46C47.67 47.06 45.67 45.08 43.27 45.08C40.89 45.08 38.93 47.06 38.93 49.46ZM61.6422 43.9V45.44H54.4622V48.7C55.4822 48.16 56.4222 47.68 58.0822 47.68C60.4822 47.68 62.8822 48.8 62.8822 51.3C62.8822 54.26 60.0022 55.34 57.2822 55.34C54.5222 55.34 52.8022 54.24 51.8822 53.58L52.7822 52.38C53.5222 52.92 55.0022 53.82 57.2822 53.82C59.1622 53.82 61.1622 53.14 61.1622 51.32C61.1622 49.8 59.6222 49.14 58.0422 49.14C56.2422 49.14 55.0622 49.64 53.9822 50.2L52.9022 49.42V43.9H61.6422Z" fill="white"></path></svg>