<svg xmlns="http://www.w3.org/2000/svg" width="100" height="100" viewBox="0 0 100 100" fill="none"><circle cx="50" cy="50" r="50" fill="#AD8941" fill-opacity="0.1"></circle><circle cx="49.5" cy="49.5" r="39.5" fill="#AD8941"></circle><path d="M36.5245 49.46C36.5245 46.18 39.2845 43.56 42.5845 43.56C45.9045 43.56 48.7045 46.18 48.7045 49.46C48.7045 52.74 45.9045 55.34 42.5845 55.34C39.2845 55.34 36.5245 52.74 36.5245 49.46ZM38.2445 49.46C38.2445 51.86 40.2045 53.82 42.5845 53.82C44.9845 53.82 46.9845 51.86 46.9845 49.46C46.9845 47.06 44.9845 45.08 42.5845 45.08C40.2045 45.08 38.2445 47.06 38.2445 49.46ZM61.8766 44.7L60.9766 45.9C60.1166 45.38 58.9166 45.08 57.6566 45.08C55.3166 45.08 53.1566 46.64 53.0366 49.36C54.1166 48.6 55.8366 47.74 57.9366 47.74C61.0766 47.74 62.5366 49.6 62.5366 51.28C62.5366 53.54 60.4566 55.34 57.5166 55.34C54.4166 55.34 51.4566 53.38 51.4566 49.64C51.4566 45.82 54.3966 43.58 57.6966 43.58C60.0366 43.58 61.3766 44.4 61.8766 44.7ZM57.7766 49.14C55.8966 49.14 54.1766 50 53.1566 50.64C53.6166 52.72 55.4766 53.82 57.5366 53.82C59.4566 53.82 60.8366 52.56 60.8366 51.24C60.8366 50.3 59.9566 49.14 57.7766 49.14Z" fill="white"></path></svg>