<svg xmlns="http://www.w3.org/2000/svg" width="100" height="100" viewBox="0 0 100 100" fill="none"><circle cx="50" cy="50" r="50" fill="#AD8941" fill-opacity="0.1"></circle><circle cx="49.5" cy="49.5" r="39.5" fill="#AD8941"></circle><path d="M39.3467 49.46C39.3467 46.18 42.1067 43.56 45.4067 43.56C48.7267 43.56 51.5267 46.18 51.5267 49.46C51.5267 52.74 48.7267 55.34 45.4067 55.34C42.1067 55.34 39.3467 52.74 39.3467 49.46ZM41.0667 49.46C41.0667 51.86 43.0267 53.82 45.4067 53.82C47.8067 53.82 49.8067 51.86 49.8067 49.46C49.8067 47.06 47.8067 45.08 45.4067 45.08C43.0267 45.08 41.0667 47.06 41.0667 49.46ZM53.8589 46.78L53.4789 45.38L56.8589 43.9H58.5789V55H56.8589V45.46L53.8589 46.78Z" fill="white"></path></svg>