<svg xmlns="http://www.w3.org/2000/svg" width="100" height="100" viewBox="0 0 100 100" fill="none"><circle cx="50" cy="50" r="50" fill="#AD8941" fill-opacity="0.1"></circle><circle cx="49.5" cy="49.5" r="39.5" fill="#AD8941"></circle><path d="M36.2803 49.46C36.2803 46.18 39.0403 43.56 42.3403 43.56C45.6603 43.56 48.4603 46.18 48.4603 49.46C48.4603 52.74 45.6603 55.34 42.3403 55.34C39.0403 55.34 36.2803 52.74 36.2803 49.46ZM38.0003 49.46C38.0003 51.86 39.9603 53.82 42.3403 53.82C44.7403 53.82 46.7403 51.86 46.7403 49.46C46.7403 47.06 44.7403 45.08 42.3403 45.08C39.9603 45.08 38.0003 47.06 38.0003 49.46ZM63.0325 51.06V52.42H60.8325V55H59.1125V52.42H50.6925V51.2L59.2525 43.9H60.8325V51.06H63.0325ZM53.2525 51V51.06H59.1125V46.1H58.9325C57.0725 47.68 55.0925 49.42 53.2525 51Z" fill="white"></path></svg>