<svg xmlns="http://www.w3.org/2000/svg" id="Layer_2" data-name="Layer 2" viewBox="0 0 402.05 172.42"><defs><style>      .cls-1 {        fill: #233628;      }      .cls-1, .cls-2 {        stroke-width: 0px;      }      .cls-2 {        fill: #ad8941;      }    </style></defs><g id="Layer_1-2" data-name="Layer 1"><g><g><path class="cls-2" d="M78.04,38.14c-10.48,0-20.23,4.8-26.74,12.53-6.46-7.75-16.13-12.45-26.77-12.45-.77,0-1.4.63-1.4,1.4v8.9c0,.08,0,.16,0,.24v46.09s0,.01,0,.02c0,.02,0,.04,0,.06,0,0,0,0,0,0,0,0,0,0,0,0v55.34c0,.77.63,1.4,1.4,1.4s1.4-.63,1.4-1.4v-44.32c2.32.36,4.58.87,6.78,1.55v42.78c0,.77.63,1.4,1.4,1.4s1.4-.63,1.4-1.4v-41.81c17.48,6.54,30.28,22.75,31.93,41.93.06.73.67,1.28,1.39,1.28.04,0,.08,0,.12,0,.77-.07,1.34-.74,1.27-1.51-1.8-20.91-16.13-38.47-35.49-44.93-.12-.06-.26-.11-.4-.13-2.71-.88-5.52-1.54-8.41-1.97v-6.68c13.48.77,26.03,6.48,35.49,16.22,9.81,10.1,15.22,23.42,15.22,37.51v.11c0,.77.63,1.4,1.4,1.4s1.4-.63,1.4-1.4V48.64s0,0,0,0v-9.09c0-.77-.63-1.4-1.4-1.4ZM55.04,63.2c-1.62,2.64-2.9,5.5-3.78,8.52-.88-3-2.15-5.85-3.76-8.48.91-2.82,2.19-5.46,3.79-7.86,1.57,2.38,2.84,5,3.75,7.83ZM32.7,94.4c-2.22-.39-4.49-.63-6.77-.76v-43.23c2.38.63,4.65,1.52,6.77,2.64v41.35ZM34.73,50.96c-2.72-1.52-5.67-2.69-8.8-3.44v-6.47c9.44.4,17.94,4.84,23.61,11.9-1.62,2.28-2.97,4.76-4.01,7.42-2.86-3.76-6.46-6.94-10.62-9.3-.06-.04-.12-.07-.18-.1ZM67.01,114.78c-1.13-1.4-2.32-2.76-3.59-4.07-7.71-7.93-17.37-13.33-27.92-15.74v-40.25c8.73,5.82,14.36,15.76,14.36,26.73,0,.77.63,1.4,1.4,1.4s1.4-.63,1.4-1.4c0-10.98,5.63-20.92,14.36-26.74v60.06ZM76.63,132.56c-1.61-4.94-3.9-9.63-6.82-13.96V53.05c2.14-1.13,4.42-2.03,6.83-2.65v82.16ZM76.64,47.51c-3.15.75-6.13,1.92-8.87,3.45-.06.03-.12.06-.17.1-4.15,2.35-7.75,5.52-10.6,9.27-1.04-2.65-2.37-5.12-3.96-7.38,5.7-7.04,14.28-11.56,23.59-11.98v6.54Z"></path><path class="cls-2" d="M49.51,34.46c.86,1.19,2.63,1.19,3.49,0l3.71-5.15c.54-.75.54-1.76,0-2.51l-3.71-5.16c-.86-1.19-2.63-1.19-3.49,0l-3.71,5.16c-.54.75-.54,1.76,0,2.51l3.71,5.15ZM51.25,24.01l2.91,4.04-2.91,4.04-2.91-4.04,2.91-4.04Z"></path></g><path class="cls-2" d="M51.28,172.42c-28.27,0-51.28-23-51.28-51.28V51.28C0,23,23,0,51.28,0s51.28,23,51.28,51.28v69.87c0,28.27-23,51.28-51.28,51.28ZM51.28,2.8C24.55,2.8,2.8,24.55,2.8,51.28v69.87c0,26.73,21.75,48.48,48.48,48.48s48.48-21.75,48.48-48.48V51.28c0-26.73-21.75-48.48-48.48-48.48Z"></path><g><path class="cls-1" d="M171.24,25.35c.5,0,.9.4.9.9v34.8c0,.5-.4.9-.9.9h-3.6c-.45,0-.9-.4-.9-.9v-30.8l-11.95,20.9c-.45.7-1.1,1-1.75,1h-4c-.85,0-1.45-.3-2-1.05l-11.5-17.5v27.9c0,.25-.2.45-.45.45h-1.3c-.25,0-.45-.2-.45-.45V25.8c0-.25.2-.45.45-.45h1.95c.7,0,1,.3,1.35.8l15.8,23.95,13.95-24.4c.15-.2.45-.35.8-.35h3.6Z"></path><path class="cls-1" d="M205.37,47v-21.2c0-.25.2-.45.45-.45h1.25c.25,0,.45.2.45.45v21.2c0,10.65-7.7,16-15.5,16.05-7.9.05-15.8-5.3-15.8-16.05v-20.75c0-.5.4-.9.9-.9h3.6c.5,0,.9.4.9.9v20.75c0,17.5,23.75,17.5,23.75,0Z"></path><path class="cls-1" d="M216.24,25.35c.5,0,.9.4.9.9v33.55h17.95c.25,0,.45.2.45.45v1.25c0,.25-.2.45-.45.45h-22.9c-.25,0-.45-.2-.45-.45V26.25c0-.5.4-.9.9-.9h3.6Z"></path><path class="cls-1" d="M300.35,25.8v1.3c0,.25-.2.45-.45.45h-17.95v17.8c3.2-2.4,6.85-3.45,10.85-3.45.55,0,.65.1.65.75v.75q-.05.7-.7.7c-4.15,0-7.75,1.25-10.8,4.05v11.65h17.95c.25,0,.45.2.45.45v1.25c0,.25-.2.45-.45.45h-22.9c-.25,0-.45-.2-.45-.45V25.8c0-.25.2-.45.45-.45h22.9c.25,0,.45.2.45.45Z"></path><path class="cls-1" d="M193.97,110.89v1.3c0,.25-.2.45-.45.45h-17.95v17.8c3.2-2.4,6.85-3.45,10.85-3.45.55,0,.65.1.65.75v.75q-.05.7-.7.7c-4.15,0-7.75,1.25-10.8,4.05v11.65h17.95c.25,0,.45.2.45.45v1.25c0,.25-.2.45-.45.45h-22.9c-.25,0-.45-.2-.45-.45v-35.7c0-.25.2-.45.45-.45h22.9c.25,0,.45.2.45.45Z"></path><path class="cls-1" d="M323.85,25.35c6.95,0,12.6,5.7,12.6,12.65,0,5.45-3.5,10.15-8.4,11.9l9.35,10.6c.75.75.9,1.45.1,1.45h-4.85c-.95,0-1.25-.1-1.85-.75l-9.35-10.6h-9.15v10.45c0,.5-.4.9-.9.9h-3.6c-.5,0-.9-.4-.9-.9V26.25c0-.5.4-.9.9-.9h16.05ZM312.3,48.45h8.8c5.75,0,10-4.7,10-10.45s-4.25-10.45-10-10.45h-8.8v20.9Z"></path><path class="cls-1" d="M368.15,25.8v1.3c0,.25-.2.45-.45.45h-17.95v17.8c3.2-2.4,6.85-3.45,10.85-3.45.55,0,.65.1.65.75v.75q-.05.7-.7.7c-4.15,0-7.75,1.25-10.8,4.05v11.65h17.95c.25,0,.45.2.45.45v1.25c0,.25-.2.45-.45.45h-22.9c-.25,0-.45-.2-.45-.45V25.8c0-.25.2-.45.45-.45h22.9c.25,0,.45.2.45.45Z"></path><path class="cls-1" d="M395.85,53.5c-.1-4.2-5.85-5.95-9.15-7.3-5.5-2.25-13.45-4.9-13.1-12.25.25-5.05,5.15-9.7,12.9-9.7,5.25,0,10.05,2.2,13.45,5.8.55.55.15.8,0,.95l-.55.5c-.3.25-.5.35-1-.15-2.7-3-6.45-4.8-10.55-4.8-5.2,0-8.7,3-8.95,6.25-.4,5,5.55,6.65,9.2,8.1,5.4,2.25,13.9,4.3,13.95,11.25.1,6.5-7.9,13.25-18.55,10.2-4.75-1.35-8.55-4.45-10.95-8.5-.65-1.05-.4-1.2.05-1.45l.65-.3c.4-.15.5-.2,1,.65,1.8,3.35,4.85,5.8,8.6,7,6.25,2,13.05-1.9,13-6.25Z"></path><path class="cls-1" d="M165.86,146.57c0,.25-.2.45-.45.45h-1.3c-.25,0-.45-.2-.45-.45v-6l-26.75-23v29c0,.25-.2.45-.45.45h-1.3c-.25,0-.45-.2-.45-.45v-35.7c0-.25.2-.45.45-.45h1.3c.2,0,.45.1.65.25l26.55,22.75v-22.55c0-.25.2-.45.45-.45h1.3c.25,0,.45.2.45.45v35.7Z"></path><path class="cls-1" d="M232.2,130.37v15.75c0,.5-.4.9-.9.9h-3.6c-.5,0-.9-.4-.9-.9v-1.3c-3,2.1-6.65,3.3-10.55,3.3-10.45,0-18.95-8.7-18.95-19.4s8.5-19.4,18.95-19.4c5.25,0,10.05,2.2,13.45,5.8.55.55.15.8,0,.95l-.55.5c-.3.25-.55.35-1-.15-2.7-3-6.45-4.8-10.55-4.8-8.4,0-14.9,7.65-14.9,17.1s6.5,17.1,14.9,17.1c3.45,0,6.65-1.3,9.2-3.5v-10.65h-7.2c-.25,0-.45-.2-.45-.45v-1.3c0-.25.2-.45.45-.45h11.7c.5,0,.9.4.9.9Z"></path><path class="cls-1" d="M277.8,128.72c0,10.7-9.2,19.4-20.55,19.4s-20.6-8.7-20.6-19.4,9.2-19.4,20.6-19.4,20.55,8.7,20.55,19.4ZM242,128.72c0,9.45,6.8,17.35,15.25,17.35s15.2-7.9,15.2-17.35-6.8-17.35-15.2-17.35-15.25,7.9-15.25,17.35ZM256.05,108.01c-.2.2-.5.45-.75.45h-.7c-.25,0-.3-.2-.15-.45l2.7-3.85c.25-.35.55-.3.75-.3h1.7c.2,0,.5.35.25.6l-3.8,3.55Z"></path><path class="cls-1" d="M313.61,115.11c.55.55.15.8,0,.95l-.55.5c-.3.25-.55.35-1-.15-2.7-3-6.45-4.8-10.55-4.8-8.4,0-14.9,7.65-14.9,17.1s6.5,17.1,14.9,17.1c3.9,0,7.5-1.65,10.2-4.4.65-.7.75-.65,1.1-.35l.55.5c.35.35.55.5-.35,1.4-3.4,3.2-7.9,5.15-12.85,5.15-10.45,0-18.95-8.7-18.95-19.4s8.5-19.4,18.95-19.4c5.25,0,10.05,2.2,13.45,5.8Z"></path><path class="cls-1" d="M322.01,110.41c.5,0,.9.4.9.9v34.8c0,.5-.4.9-.9.9h-3.6c-.5,0-.9-.4-.9-.9v-34.8c0-.5.4-.9.9-.9h3.6Z"></path><path class="cls-1" d="M366.3,128.72c0,10.7-9.2,19.4-20.55,19.4s-20.6-8.7-20.6-19.4,9.2-19.4,20.6-19.4,20.55,8.7,20.55,19.4ZM330.5,128.72c0,9.45,6.8,17.35,15.25,17.35s15.2-7.9,15.2-17.35-6.8-17.35-15.2-17.35-15.25,7.9-15.25,17.35Z"></path><path class="cls-1" d="M392.24,138.57c-.1-4.2-5.85-5.95-9.15-7.3-5.5-2.25-13.45-4.9-13.1-12.25.25-5.05,5.15-9.7,12.9-9.7,5.25,0,10.05,2.2,13.45,5.8.55.55.15.8,0,.95l-.55.5c-.3.25-.5.35-1-.15-2.7-3-6.45-4.8-10.55-4.8-5.2,0-8.7,3-8.95,6.25-.4,5,5.55,6.65,9.2,8.1,5.4,2.25,13.9,4.3,13.95,11.25.1,6.5-7.9,13.25-18.55,10.2-4.75-1.35-8.55-4.45-10.95-8.5-.65-1.05-.4-1.2.05-1.45l.65-.3c.4-.15.5-.2,1,.65,1.8,3.35,4.85,5.8,8.6,7,6.25,2,13.05-1.9,13-6.25Z"></path><g><path class="cls-1" d="M255.14,78.8h8.94c4.61,0,7.6,1.85,7.6,6.28v.2c0,4.44-2.99,6.29-7.6,6.29h-8.94v-12.77ZM263.57,89.24c3.23,0,4.66-1.15,4.66-3.96v-.2c0-2.81-1.43-3.96-4.66-3.96h-5.12v8.12h5.12Z"></path><path class="cls-1" d="M274.55,78.8h13.08v2.26h-9.78v2.92h9.78v2.17h-9.78v3.15h9.78v2.26h-13.08v-12.77Z"></path></g><g><path class="cls-1" d="M244.96,44.7v-18.45c0-.5-.4-.9-.9-.9h-3.6c-.5,0-.9.4-.9.9v34.8c0,.5.4.9.9.9h3.6c.5,0,.9-.4.9-.9v-16.35Z"></path><path class="cls-1" d="M269.81,25.35h-3.6c-.5,0-.9.4-.9.9v34.8c0,.5.4.9.9.9h3.6c.5,0,.9-.4.9-.9V26.25c0-.5-.4-.9-.9-.9Z"></path></g><rect class="cls-1" x="243.61" y="48.45" width="22.32" height="2.15"></rect></g></g></g></svg>